<?xml version="1.0" encoding="UTF-8" standalone="no"?>
<!DOCTYPE svg PUBLIC "-//W3C//DTD SVG 1.1//EN" "http://www.w3.org/Graphics/SVG/1.1/DTD/svg11.dtd">
<svg width="100%" height="100%" viewBox="0 0 405 412" version="1.1" xmlns="http://www.w3.org/2000/svg" xmlns:xlink="http://www.w3.org/1999/xlink" xml:space="preserve" xmlns:serif="http://www.serif.com/" style="fill-rule:evenodd;clip-rule:evenodd;stroke-linejoin:round;stroke-miterlimit:2;">
    <rect id="hexes" x="0" y="0" width="404.151" height="411.112" style="fill:none;"/>
    <clipPath id="_clip1">
        <rect id="hexes1" serif:id="hexes" x="0" y="0" width="404.151" height="411.112"/>
    </clipPath>
    <g clip-path="url(#_clip1)">
        <g>
            <clipPath id="_clip2">
                <rect x="-0" y="0" width="404.151" height="411.112"/>
            </clipPath>
            <g clip-path="url(#_clip2)">
                <g transform="matrix(0.625557,0,0,0.625557,-52.1802,-169.841)">
                    <path d="M353.108,202.349L470.108,269.9L470.108,405L353.108,472.55L236.107,405L236.107,269.9L353.108,202.349Z" style="fill:rgb(254,212,0);"/>
                </g>
                <g transform="matrix(0.625557,0,0,0.625557,109.227,-169.841)">
                    <path d="M353.108,202.349L470.108,269.9L470.108,405L353.108,472.55L236.107,405L236.107,269.9L353.108,202.349Z" style="fill:rgb(254,212,0);"/>
                </g>
                <g transform="matrix(0.64636,0,0,0.64636,-228.235,-174.051)">
                    <path d="M353.108,202.349L470.108,269.9L470.108,405L353.108,472.55L236.107,405L236.107,269.9L353.108,202.349Z" style="fill:rgb(254,212,0);"/>
                </g>
                <g transform="matrix(0.625557,0,0,0.625557,-220.889,115.504)">
                    <path d="M353.108,202.349L470.108,269.9L470.108,405L353.108,472.55L236.107,405L236.107,269.9L353.108,202.349Z" style="fill:rgb(254,212,0);"/>
                </g>
                <g transform="matrix(0.64636,0,0,0.64636,-142.663,-31.3778)">
                    <path d="M353.108,202.349L470.108,269.9L470.108,405L353.108,472.55L236.107,405L236.107,269.9L353.108,202.349Z" style="fill:rgb(254,212,0);"/>
                </g>
            </g>
        </g>
    </g>
</svg>
