<?xml version="1.0" encoding="UTF-8" standalone="no"?>
<!DOCTYPE svg PUBLIC "-//W3C//DTD SVG 1.1//EN" "http://www.w3.org/Graphics/SVG/1.1/DTD/svg11.dtd">
<svg width="100%" height="100%" viewBox="0 0 900 900" version="1.1" xmlns="http://www.w3.org/2000/svg" xmlns:xlink="http://www.w3.org/1999/xlink" xml:space="preserve" xmlns:serif="http://www.serif.com/" style="fill-rule:evenodd;clip-rule:evenodd;stroke-linejoin:round;stroke-miterlimit:2;">
    <g transform="matrix(2.93028,0,0,2.93028,-514.706,-511.765)">
        <path d="M329.219,174.647L462.214,251.431L462.214,405L329.219,481.784L196.225,405L196.225,251.431L329.219,174.647Z"/>
    </g>
    <g transform="matrix(0.578289,0,0,0.578289,172.421,727.579)">
        <path d="M204.62,-204.62L204.62,-140C186.847,-140 171.633,-146.327 158.98,-158.98C146.327,-171.633 140,-186.847 140,-204.62L204.62,-204.62ZM140,-293.85L140,-358.46L204.62,-358.46L204.62,-293.85L140,-293.85ZM140,-447.69L140,-512.31L204.62,-512.31L204.62,-447.69L140,-447.69ZM140,-601.54L140,-666.15L204.62,-666.15L204.62,-601.54L140,-601.54ZM204.62,-755.38L140,-755.38C140,-773.153 146.327,-788.367 158.98,-801.02C171.633,-813.673 186.847,-820 204.62,-820L204.62,-755.38ZM293.85,-140L293.85,-204.62L358.46,-204.62L358.46,-140L293.85,-140ZM293.85,-755.38L293.85,-820L358.46,-820L358.46,-755.38L293.85,-755.38ZM447.69,-140L447.69,-204.62L512.31,-204.62L512.31,-140L447.69,-140ZM447.69,-755.38L447.69,-820L512.31,-820L512.31,-755.38L447.69,-755.38ZM601.54,-140L601.54,-204.62L666.15,-204.62L666.15,-140L601.54,-140ZM601.54,-755.38L601.54,-820L666.15,-820L666.15,-755.38L601.54,-755.38ZM755.38,-204.62L820,-204.62C820,-186.847 813.673,-171.633 801.02,-158.98C788.367,-146.327 773.153,-140 755.38,-140L755.38,-204.62ZM755.38,-293.85L755.38,-358.46L820,-358.46L820,-293.85L755.38,-293.85ZM755.38,-447.69L755.38,-512.31L820,-512.31L820,-447.69L755.38,-447.69ZM755.38,-601.54L755.38,-666.15L820,-666.15L820,-601.54L755.38,-601.54ZM755.38,-755.38L755.38,-820C773.153,-820 788.367,-813.673 801.02,-801.02C813.673,-788.367 820,-773.153 820,-755.38L755.38,-755.38Z" style="fill:rgb(254,212,0);fill-rule:nonzero;"/>
    </g>
</svg>
