<svg width="100%" height="100%" viewBox="0 0 1099 188" version="1.1" xmlns="http://www.w3.org/2000/svg" xmlns:xlink="http://www.w3.org/1999/xlink" xml:space="preserve" xmlns:serif="http://www.serif.com/" style="fill-rule:evenodd;clip-rule:evenodd;stroke-linejoin:round;stroke-miterlimit:2;"><g><g><path d="M124.98,94.068c10.682,-0 19.211,3.461 25.587,10.382c6.377,6.922 9.565,16.432 9.565,28.531l-0,53.3l-27.795,0l0,-49.54c0,-6.104 -1.58,-10.845 -4.741,-14.224c-3.161,-3.379 -7.412,-5.069 -12.753,-5.069c-5.341,0 -9.592,1.69 -12.753,5.069c-3.161,3.379 -4.741,8.12 -4.741,14.224l-0,49.54l-27.959,0l0,-91.232l27.959,-0l-0,12.099c2.834,-4.033 6.648,-7.221 11.444,-9.565c4.796,-2.343 10.192,-3.515 16.187,-3.515Z" style="fill-rule:nonzero;" /><path d="M264.28,139.194c0,2.615 -0.163,5.34 -0.49,8.174l-63.274,0c0.436,5.668 2.262,10.001 5.477,12.999c3.216,2.997 7.167,4.496 11.854,4.496c6.976,-0 11.826,-2.943 14.551,-8.829l29.757,-0c-1.526,5.995 -4.278,11.39 -8.257,16.186c-3.978,4.796 -8.965,8.557 -14.96,11.282c-5.995,2.725 -12.698,4.087 -20.11,4.087c-8.938,0 -16.895,-1.907 -23.871,-5.722c-6.976,-3.815 -12.426,-9.265 -16.35,-16.35c-3.924,-7.085 -5.886,-15.369 -5.886,-24.852c0,-9.483 1.935,-17.767 5.804,-24.852c3.87,-7.085 9.293,-12.535 16.269,-16.35c6.975,-3.815 14.987,-5.722 24.034,-5.722c8.829,-0 16.677,1.853 23.544,5.559c6.866,3.706 12.235,8.992 16.104,15.859c3.87,6.867 5.804,14.879 5.804,24.035Zm-28.612,-7.358c0,-4.796 -1.635,-8.611 -4.905,-11.445c-3.27,-2.834 -7.357,-4.251 -12.262,-4.251c-4.687,0 -8.638,1.363 -11.854,4.088c-3.215,2.725 -5.205,6.594 -5.968,11.608l34.989,0Z" style="fill-rule:nonzero;" /><path d="M272.128,140.665c0,-9.483 1.935,-17.767 5.804,-24.852c3.87,-7.085 9.265,-12.535 16.187,-16.35c6.921,-3.815 14.851,-5.722 23.789,-5.722c11.445,-0 21.009,2.997 28.694,8.992c7.684,5.995 12.725,14.443 15.123,25.343l-29.756,-0c-2.507,-6.976 -7.358,-10.464 -14.552,-10.464c-5.123,-0 -9.21,1.989 -12.262,5.967c-3.052,3.979 -4.578,9.674 -4.578,17.086c-0,7.412 1.526,13.107 4.578,17.086c3.052,3.978 7.139,5.967 12.262,5.967c7.194,0 12.045,-3.488 14.552,-10.464l29.756,0c-2.398,10.682 -7.466,19.075 -15.205,25.179c-7.739,6.104 -17.276,9.156 -28.612,9.156c-8.938,0 -16.868,-1.907 -23.789,-5.722c-6.922,-3.815 -12.317,-9.265 -16.187,-16.35c-3.869,-7.085 -5.804,-15.369 -5.804,-24.852Z" style="fill-rule:nonzero;" /><path d="M426.144,162.574l-0,23.707l-14.225,0c-10.137,0 -18.039,-2.48 -23.707,-7.439c-5.668,-4.96 -8.502,-13.053 -8.502,-24.28l0,-36.296l-11.118,-0l0,-23.217l11.118,-0l0,-22.236l27.958,0l0,22.236l18.312,-0l0,23.217l-18.312,-0l0,36.623c0,2.725 0.654,4.687 1.962,5.886c1.308,1.199 3.488,1.799 6.54,1.799l9.974,-0Z" style="fill-rule:nonzero;" /><path d="M434.809,140.502c0,-9.374 1.771,-17.604 5.314,-24.689c3.542,-7.085 8.365,-12.535 14.469,-16.35c6.104,-3.815 12.917,-5.722 20.438,-5.722c6.431,-0 12.071,1.308 16.922,3.924c4.85,2.616 8.583,6.049 11.199,10.3l0,-12.916l27.959,-0l-0,91.232l-27.959,0l0,-12.916c-2.725,4.251 -6.512,7.684 -11.363,10.3c-4.85,2.616 -10.491,3.924 -16.922,3.924c-7.412,0 -14.17,-1.935 -20.274,-5.804c-6.104,-3.87 -10.927,-9.374 -14.469,-16.514c-3.543,-7.139 -5.314,-15.396 -5.314,-24.769Zm68.342,0.163c0,-6.976 -1.934,-12.48 -5.804,-16.513c-3.869,-4.033 -8.584,-6.05 -14.142,-6.05c-5.559,0 -10.274,1.989 -14.143,5.968c-3.87,3.978 -5.804,9.456 -5.804,16.432c-0,6.975 1.934,12.507 5.804,16.595c3.869,4.087 8.584,6.131 14.143,6.131c5.558,-0 10.273,-2.017 14.142,-6.05c3.87,-4.033 5.804,-9.537 5.804,-16.513Z" style="fill-rule:nonzero;" /><path d="M578.034,110.254c3.27,-5.014 7.357,-8.965 12.262,-11.853c4.905,-2.889 10.355,-4.333 16.35,-4.333l-0,29.593l-7.685,0c-6.976,0 -12.208,1.499 -15.695,4.496c-3.488,2.998 -5.232,8.257 -5.232,15.778l-0,42.346l-27.959,0l0,-91.232l27.959,-0l-0,15.205Z" style="fill-rule:nonzero;" /><path d="M749.707,95.049l-24.688,91.232l-30.902,0l-14.387,-59.186l-14.879,59.186l-30.738,0l-24.851,-91.232l27.958,-0l12.916,65.236l15.369,-65.236l29.593,-0l15.533,64.909l12.753,-64.909l26.323,-0Z" style="fill-rule:nonzero;" /><path d="M797.939,187.589c-8.938,0 -16.977,-1.907 -24.116,-5.722c-7.14,-3.815 -12.753,-9.265 -16.841,-16.35c-4.087,-7.085 -6.131,-15.369 -6.131,-24.852c0,-9.374 2.071,-17.631 6.213,-24.77c4.142,-7.139 9.81,-12.617 17.004,-16.432c7.194,-3.815 15.26,-5.722 24.198,-5.722c8.938,-0 17.004,1.907 24.198,5.722c7.193,3.815 12.861,9.293 17.003,16.432c4.142,7.139 6.213,15.396 6.213,24.77c0,9.374 -2.098,17.631 -6.294,24.77c-4.197,7.139 -9.919,12.617 -17.168,16.432c-7.248,3.815 -15.341,5.722 -24.279,5.722Zm-0,-24.198c5.341,0 9.891,-1.962 13.652,-5.886c3.76,-3.924 5.641,-9.537 5.641,-16.84c-0,-7.303 -1.826,-12.916 -5.478,-16.84c-3.651,-3.924 -8.147,-5.886 -13.488,-5.886c-5.45,-0 -9.974,1.934 -13.571,5.804c-3.597,3.869 -5.395,9.51 -5.395,16.922c-0,7.303 1.771,12.916 5.314,16.84c3.542,3.924 7.984,5.886 13.325,5.886Z" style="fill-rule:nonzero;" /><path d="M884.593,110.254c3.27,-5.014 7.357,-8.965 12.262,-11.853c4.905,-2.889 10.355,-4.333 16.35,-4.333l0,29.593l-7.684,0c-6.976,0 -12.208,1.499 -15.696,4.496c-3.488,2.998 -5.232,8.257 -5.232,15.778l-0,42.346l-27.958,0l-0,-91.232l27.958,-0l-0,15.205Z" style="fill-rule:nonzero;" /><path d="M981.057,186.281l-27.795,-38.259l0,38.259l-27.958,0l-0,-120.989l27.958,0l0,66.871l27.631,-37.114l34.499,-0l-37.932,45.779l38.259,45.453l-34.662,0Z" style="fill-rule:nonzero;" /><path d="M1062.07,187.589c-7.94,0 -15.01,-1.362 -21.211,-4.087c-6.199,-2.725 -11.094,-6.459 -14.684,-11.2c-3.591,-4.742 -5.603,-10.055 -6.037,-15.941l27.631,-0c0.327,3.161 1.799,5.722 4.415,7.684c2.616,1.962 5.831,2.943 9.646,2.943c3.488,0 6.186,-0.681 8.093,-2.044c1.908,-1.362 2.861,-3.133 2.861,-5.313c0,-2.616 -1.362,-4.551 -4.087,-5.804c-2.725,-1.254 -7.139,-2.644 -13.243,-4.17c-6.54,-1.526 -11.99,-3.133 -16.35,-4.823c-4.36,-1.689 -8.121,-4.36 -11.282,-8.011c-3.161,-3.652 -4.741,-8.584 -4.741,-14.797c-0,-5.232 1.444,-10 4.333,-14.306c2.888,-4.305 7.139,-7.712 12.753,-10.219c5.613,-2.507 12.289,-3.76 20.028,-3.76c11.445,-0 20.465,2.834 27.059,8.502c6.594,5.668 10.382,13.189 11.363,22.563l-25.833,-0c-0.436,-3.161 -1.825,-5.668 -4.169,-7.521c-2.343,-1.853 -5.422,-2.78 -9.237,-2.78c-3.27,0 -5.777,0.627 -7.521,1.881c-1.744,1.253 -2.616,2.97 -2.616,5.15c-0,2.616 1.389,4.578 4.169,5.886c2.779,1.308 7.112,2.616 12.998,3.924c6.758,1.744 12.262,3.46 16.513,5.15c4.251,1.689 7.984,4.414 11.2,8.175c3.215,3.76 4.823,8.801 4.823,15.123c0,5.341 -1.496,10.11 -4.488,14.306c-2.991,4.197 -7.287,7.494 -12.889,9.892c-5.601,2.398 -12.1,3.597 -19.497,3.597Z" style="fill-rule:nonzero;" /></g><g><path d="M42.114,49.988c-5.491,-12.495 -4.84,-25.431 0.867,-32.46c-2.13,0.805 -4.209,1.688 -6.208,2.57c-5.801,6.998 -6.494,20.01 -0.971,32.58c5.523,12.569 15.576,20.859 24.653,21.317c1.92,-0.84 3.89,-1.737 5.842,-2.713c-8.953,-0.717 -18.757,-8.941 -24.184,-21.294l0.001,0Z" /><path d="M29.211,55.574c-5.503,-12.524 -4.837,-25.49 0.906,-32.508c-2.115,0.952 -4.353,2.012 -6.639,3.131c-5.508,7.086 -6.076,19.847 -0.655,32.185c5.421,12.337 15.205,20.549 24.149,21.283c2.37,-0.927 4.665,-1.859 6.795,-2.774c-9.052,-0.514 -19.053,-8.791 -24.556,-21.317Z" /><path d="M16.232,61.279c-5.212,-11.862 -4.891,-24.121 0.035,-31.347c-12.101,7.421 -16.641,22.859 -10.828,36.09c5.814,13.232 20.256,20.326 33.905,16.43c-8.654,-1.257 -17.9,-9.311 -23.112,-21.173Z" /><path d="M48.827,15.633c-5.006,7.208 -5.363,19.531 -0.123,31.457c5.241,11.927 14.392,19.855 23.018,21.155c11.31,-7.459 14.698,-22.885 9.199,-35.398c-5.498,-12.514 -19.013,-20.373 -32.095,-17.213l0.001,-0.001Zm18.411,20.613c-1.519,0.668 -3.508,-0.516 -4.444,-2.645c-0.935,-2.129 -0.462,-4.396 1.057,-5.064c1.519,-0.667 3.509,0.517 4.445,2.646c0.935,2.129 0.461,4.395 -1.058,5.063Z" /><path d="M6.603,8.109c-5.584,2.454 -8.121,8.97 -5.667,14.554c2.453,5.584 8.82,7.964 14.552,5.667c2.562,-1.026 10.109,-4.443 10.109,-4.443c-0,0 -3.234,-7.628 -4.443,-10.11c-2.738,-5.622 -8.968,-8.122 -14.551,-5.668Z" /><path d="M22.684,0.936c-2.879,1.265 -4.895,3.552 -5.866,6.266c2.486,1.052 4.626,3.03 5.949,5.745c1.209,2.482 4.459,10.163 4.459,10.163c1.722,-0.754 3.401,-1.501 4.343,-1.953c5.569,-2.67 8.121,-8.97 5.667,-14.554c-2.453,-5.584 -8.969,-8.121 -14.552,-5.667Z" /></g></g></svg>