<svg width="100%" height="100%" viewBox="0 0 301 301" version="1.1" xmlns="http://www.w3.org/2000/svg" xmlns:xlink="http://www.w3.org/1999/xlink" xml:space="preserve" xmlns:serif="http://www.serif.com/" style="fill-rule:evenodd;clip-rule:evenodd;stroke-linejoin:round;stroke-miterlimit:2;"><path d="M151.689,180.052c-19.777,-45.008 -17.434,-91.602 3.123,-116.918c-7.672,2.899 -15.161,6.079 -22.359,9.257c-20.896,25.206 -23.391,72.074 -3.498,117.348c19.893,45.273 56.101,75.131 88.797,76.782c6.917,-3.026 14.011,-6.255 21.042,-9.773c-32.247,-2.58 -67.559,-32.204 -87.11,-76.698l0.005,0.002Z" /><path d="M105.215,200.172c-19.822,-45.11 -17.422,-91.812 3.263,-117.09c-7.617,3.427 -15.678,7.247 -23.912,11.278c-19.839,25.521 -21.888,71.485 -2.361,115.926c19.525,44.437 54.768,74.015 86.981,76.657c8.538,-3.339 16.803,-6.695 24.477,-9.99c-32.605,-1.852 -68.626,-31.667 -88.448,-76.781Z" /><path d="M58.465,220.719c-18.774,-42.725 -17.616,-86.88 0.127,-112.907c-43.588,26.73 -59.941,82.334 -39,129.992c20.941,47.659 72.957,73.212 122.121,59.18c-31.17,-4.53 -64.475,-33.539 -83.248,-76.265Z" /><path d="M175.868,56.309c-18.029,25.963 -19.316,70.348 -0.44,113.305c18.874,42.957 51.835,71.515 82.905,76.195c40.737,-26.866 52.941,-82.428 33.136,-127.499c-19.803,-45.072 -68.484,-73.382 -115.604,-62l0.003,-0.001Zm66.316,74.245c-5.471,2.404 -12.638,-1.86 -16.007,-9.529c-3.37,-7.667 -1.664,-15.832 3.807,-18.237c5.472,-2.404 12.638,1.861 16.008,9.529c3.369,7.667 1.664,15.832 -3.808,18.237Z" /><path d="M23.781,29.209c-20.109,8.838 -29.247,32.308 -20.41,52.42c8.837,20.113 31.768,28.687 52.413,20.414c9.231,-3.698 36.412,-16.004 36.412,-16.004c0,0 -11.646,-27.478 -16.001,-36.417c-9.862,-20.247 -32.304,-29.252 -52.414,-20.413Z" /><path d="M81.706,3.371c-10.371,4.558 -17.633,12.793 -21.128,22.57c8.953,3.789 16.662,10.913 21.426,20.692c4.355,8.939 16.063,36.605 16.063,36.605c6.2,-2.714 12.248,-5.405 15.642,-7.033c20.058,-9.616 29.248,-32.308 20.41,-52.42c-8.837,-20.113 -32.303,-29.252 -52.413,-20.414Z" /></svg>