<?xml version="1.0" encoding="UTF-8" standalone="no"?>
<!DOCTYPE svg PUBLIC "-//W3C//DTD SVG 1.1//EN" "http://www.w3.org/Graphics/SVG/1.1/DTD/svg11.dtd">
<svg width="100%" height="100%" viewBox="0 0 900 900" version="1.1" xmlns="http://www.w3.org/2000/svg" xmlns:xlink="http://www.w3.org/1999/xlink" xml:space="preserve" xmlns:serif="http://www.serif.com/" style="fill-rule:evenodd;clip-rule:evenodd;stroke-linejoin:round;stroke-miterlimit:2;">
    <g transform="matrix(2.93028,0,0,2.93028,-514.706,-511.765)">
        <path d="M329.219,174.647L462.214,251.431L462.214,405L329.219,481.784L196.225,405L196.225,251.431L329.219,174.647Z" style="fill:white;"/>
    </g>
    <g transform="matrix(0.693946,0,0,0.693946,116.906,783.11)">
        <path d="M231.46,-340C206.027,-340 183.297,-348.04 163.27,-364.12C143.243,-380.193 130.487,-400.95 125,-426.39L97.93,-551.15L53.16,-547.77L47.69,-607.77C96.617,-612.437 137.08,-615.707 169.08,-617.58C201.08,-619.447 230.72,-620.253 258,-620C296.207,-619.74 328.323,-617.803 354.35,-614.19C380.37,-610.577 403.407,-604.54 423.46,-596.08C433.56,-591.92 443.29,-588.84 452.65,-586.84C462.01,-584.84 471.127,-583.84 480,-583.84C488.873,-583.84 497.58,-584.84 506.12,-586.84C514.653,-588.84 523.717,-591.713 533.31,-595.46C553.517,-603.92 577.567,-610.06 605.46,-613.88C633.36,-617.7 668.54,-619.74 711,-620C739.613,-620.253 770.087,-619.447 802.42,-617.58C834.753,-615.707 871.383,-612.77 912.31,-608.77L907.23,-549.77L863.07,-553.15L835,-425.39C829.513,-400.21 816.923,-379.683 797.23,-363.81C777.537,-347.937 754.973,-340 729.54,-340L642.46,-340C617.28,-340 595.113,-347.667 575.96,-363C556.807,-378.333 544.153,-397.923 538,-421.77L513.69,-518L447.31,-518L423,-421.77C416.433,-397.517 403.51,-377.823 384.23,-362.69C364.95,-347.563 343.053,-340 318.54,-340L231.46,-340ZM183.39,-438.15C185.897,-427.023 191.587,-417.883 200.46,-410.73C209.333,-403.577 219.333,-400 230.46,-400L317.54,-400C328.667,-400 338.667,-403.347 347.54,-410.04C356.413,-416.733 362.107,-425.31 364.62,-435.77L392.92,-546C373.387,-551.387 351.13,-554.9 326.15,-556.54C301.177,-558.18 278.46,-559 258,-559C243.18,-559 226.937,-558.833 209.27,-558.5C191.603,-558.167 175.36,-557.333 160.54,-556L183.39,-438.15ZM595.38,-436.15C597.893,-425.69 603.523,-417.05 612.27,-410.23C621.01,-403.41 631.073,-400 642.46,-400L729.54,-400C740.92,-400 750.983,-403.64 759.73,-410.92C768.477,-418.207 774.103,-427.283 776.61,-438.15L801.46,-557C788.127,-557.667 773.05,-558.167 756.23,-558.5C739.41,-558.833 724.333,-559 711,-559C688.947,-559 664.663,-558.18 638.15,-556.54C611.637,-554.9 587.947,-551.387 567.08,-546L595.38,-436.15Z" style="fill-rule:nonzero;"/>
    </g>
</svg>
