<?xml version="1.0" encoding="UTF-8" standalone="no"?>
<!DOCTYPE svg PUBLIC "-//W3C//DTD SVG 1.1//EN" "http://www.w3.org/Graphics/SVG/1.1/DTD/svg11.dtd">
<svg width="100%" height="100%" viewBox="0 0 900 900" version="1.1" xmlns="http://www.w3.org/2000/svg" xmlns:xlink="http://www.w3.org/1999/xlink" xml:space="preserve" xmlns:serif="http://www.serif.com/" style="fill-rule:evenodd;clip-rule:evenodd;stroke-linejoin:round;stroke-miterlimit:2;">
    <g transform="matrix(2.93028,0,0,2.93028,-514.706,-511.765)">
        <path d="M329.219,174.647L462.214,251.431L462.214,405L329.219,481.784L196.225,405L196.225,251.431L329.219,174.647Z" style="fill:white;"/>
    </g>
    <g transform="matrix(0.597429,0,0,0.597429,163.234,748.714)">
        <path d="M480.09,-336.92C525.417,-336.92 563.913,-352.783 595.58,-384.51C627.247,-416.237 643.08,-454.763 643.08,-500.09C643.08,-545.417 627.217,-583.913 595.49,-615.58C563.763,-647.247 525.237,-663.08 479.91,-663.08C434.583,-663.08 396.087,-647.217 364.42,-615.49C332.753,-583.763 316.92,-545.237 316.92,-499.91C316.92,-454.583 332.783,-416.087 364.51,-384.42C396.237,-352.753 434.763,-336.92 480.09,-336.92ZM480,-392C450,-392 424.5,-402.5 403.5,-423.5C382.5,-444.5 372,-470 372,-500C372,-530 382.5,-555.5 403.5,-576.5C424.5,-597.5 450,-608 480,-608C510,-608 535.5,-597.5 556.5,-576.5C577.5,-555.5 588,-530 588,-500C588,-470 577.5,-444.5 556.5,-423.5C535.5,-402.5 510,-392 480,-392ZM480.05,-220C388.07,-220 304.26,-245.373 228.62,-296.12C152.98,-346.86 97.287,-414.82 61.54,-500C97.287,-585.18 152.96,-653.14 228.56,-703.88C304.167,-754.627 387.963,-780 479.95,-780C571.93,-780 655.74,-754.627 731.38,-703.88C807.02,-653.14 862.713,-585.18 898.46,-500C862.713,-414.82 807.04,-346.86 731.44,-296.12C655.833,-245.373 572.037,-220 480.05,-220ZM480,-280C555.333,-280 624.5,-299.833 687.5,-339.5C750.5,-379.167 798.667,-432.667 832,-500C798.667,-567.333 750.5,-620.833 687.5,-660.5C624.5,-700.167 555.333,-720 480,-720C404.667,-720 335.5,-700.167 272.5,-660.5C209.5,-620.833 161.333,-567.333 128,-500C161.333,-432.667 209.5,-379.167 272.5,-339.5C335.5,-299.833 404.667,-280 480,-280Z" style="fill-rule:nonzero;"/>
    </g>
</svg>
